# xmcd
#
# Track frame offsets:
#	150
#	9989
#	20743
#	32548
#	40492
#	50523
#	59458
#	68936
#	78932
#	92611
#	104184
#	114474
#	122688
#	130641
#	139949
#	151667
#	160052
#	169477
#	180704
#	189319
#
# Disc length: 2641 seconds
#
# Revision: 1
# Processed by: cddbd v1.5.2PL0 Copyright (c) Steve Scherf et al.
# Submitted via: audiograbber 1.83.01
#
DISCID=0c0a4f14
DTITLE=Johnny Cash - Singles Collection 1955 - 1962 - CD3
DYEAR=1900
DGENRE=Country
TTITLE0=Rock Island Line
TTITLE1=I heard that lonesome whistle
TTITLE2=Doin' my time
TTITLE3=Wreck of the old' 97
TTITLE4=I was there when it happenend
TTITLE5=Remember Me (I'm The One Who Loves You)
TTITLE6=What Do I Care
TTITLE7=All Over Again
TTITLE8=Don't Take Your Guns To Town
TTITLE9=I Still Miss Someone
TTITLE10=Frankie's Man, Johnny
TTITLE11=You Dreamer You
TTITLE12=Five Feet High And Rising
TTITLE13=I Got Stripes
TTITLE14=The Little Drummer Boy
TTITLE15=I'll Remember You
TTITLE16=Smiling Bill McCall
TTITLE17=Seasons of my heart
TTITLE18=Second honeymoon
TTITLE19=Honky Tonk Girl
EXTD=
EXTT0=
EXTT1=
EXTT2=
EXTT3=
EXTT4=
EXTT5=
EXTT6=
EXTT7=
EXTT8=
EXTT9=
EXTT10=
EXTT11=
EXTT12=
EXTT13=
EXTT14=
EXTT15=
EXTT16=
EXTT17=
EXTT18=
EXTT19=
PLAYORDER=
